<mxfile host="app.diagrams.net" agent="Mozilla/5.0 (Windows NT 10.0; Win64; x64) AppleWebKit/537.36 (KHTML, like Gecko) Chrome/139.0.0.0 Safari/537.36" version="28.0.7">
  <diagram name="Page-1" id="B3-p5p9tWQBvDQ1RRT1n">
    <mxGraphModel dx="2258" dy="815" grid="1" gridSize="10" guides="1" tooltips="1" connect="1" arrows="1" fold="1" page="1" pageScale="1" pageWidth="850" pageHeight="1100" math="0" shadow="0">
      <root>
        <mxCell id="0" />
        <mxCell id="1" parent="0" />
        <mxCell id="wB4O-myQQqbZG3bbWy1y-2" value="" style="shape=image;verticalLabelPosition=bottom;labelBackgroundColor=default;verticalAlign=top;aspect=fixed;imageAspect=0;image=data:image/png,iVBORw0KGgoAAAANSUhEUgAAAOEAAADhCAIAAACx0UUtAAAQAElEQVR4AeydC3wU1fXHZzebZEliAgmGh5U3KFRA8VUoCIiID15KEdRqRbT/arVF69si+PgrPiq2WrUFRGtVtAW1oIg85PWHVgoKKijPGB4BJAkJCewmm83/O5kwmZ2Z3exudmdnNpPPYfbOueeee+65vzn3Nbs4a+0/2wPm9oBTsP9sD5jbAzZGzd0/tnWCYGPURoHZPWBj1Ow9ZNtnY9TGgNk9EC5Gzd4O277k9YCN0eTt22RpmY3RZOnJ5G2HjdHk7dtkaZmN0WTpyeRth43R5O3bZGlZrDGaLH6x22EeD9gYNU9f2Jboe8DGqL5fbK55PGBj1Dx9YVui7wEbo/p+sbnm8YCNUfP0hW2JvgcShVF9a2yu7QGtB2yMan1ic8zlARuj5uoP2xqtB2yMan1ic8zlARuj5uoP2xqtB2yMan1ic8zlAbNj1Fzesq1JhAdsjEbv9dqqmtq9e2u3bPavXeP/x7sNtGIZnNo9uxGIXrtd8qQHbIye9ER4nyCyZs4s362Tqvv386W7fB06+PqeXTPoopprJjbQsOFwfF26IlDdq4vvumtqnntaRG1VTXiV2FIBHrAxGuAO3RvCoX/FMt//TK52OECk/5F7alcsEQ4fFHp2bpwEofY/a/0znxRRC6avu0YMt+Ue3Ypspq4HbIzquqWeyVBe8+gjvs65NcOG1y5bXI/InDwh3S1SvVRjHwhTpA7Q4FUMtzktQDwhubGSdr7oARujohe0/2oPHfLdM4Wh3P/XPwoSwoCaVi5SDkoksC5bTEhmGsBjEKmO5iafLBiNab8xHPvatq19Z64YOAFoTJXXK6sDK2GVx4DZaj3T/tDzgI3RAK8w9SS2MRzHEZ3KCuuQ6r/3geqLBxK5lTl2WvaAjVHZFQIo8Z3dvXbVEhGgDez4pxj9v9/tG3COPe7r+trGaL1bRIAO7S94PeLss55n4AcBVRAY922Yap1uY7TeJ76xl4sArcNKPcvgD6ru0s435ELmGwbXbPLqbIyKHcQGk1C4K4LtJLFQHP4BU09lza9viYNqC6tsbhjV6Sr2Kf3TH0/MEK81JyevdvbrHBloc5otx8ao4Hv4fqFLOxMhoEu7mofvM5E9iTaluWOUICosWpL4UV6JA0b8f3/B+b6S15zTzR2j/vfnC+2zTYeALu38b7xmOqsSZFCzx+jfZptlJqpEQLqbWam9wJdc0qwxWrtnt7C7SHKEGa/ffm1Gqwy3qdljNIjHzcCu/e5bM5iRcBuaOUb3mHEyKoGifXbt9wVSsplfmzVGTd337kyhstLUFhplXPPGaGmJcKDcKFdHXE/tgf0Rl0nGAs0ao85x4x3Xjhe27RFP6pOxd5OjTc0ao47OXVxvv+favctx8QgzIvWUU5IDZE1sRXJi1F/uqd59xHegDGp0l1FE6qy5rs1fCr36iEiNyKPxE/ZUOtrqn9B6/FVCyRfC/k+FgndEIsFtxa742ZJYzcmDUeBYufDrozOWF//2w9KpS8r/+H9lT6+ESu5dVPLQx+Vz/u396kAIvDr69E1d+EnK8qVif5QVi9dE/3N07KQ0QYTm9leEpT3c/0oXVvcTNowQtlwnEglul3UTPnIIXz0uJB1YkwGjgA9oAkfv+kJ/udeRmaoietq3q6Ri9gbweuyNz0EzHF1yXnxJ6tbdzrseEgOqN6HfMD5QLuTlKY10F60Utt4uVO0QUoV6ShEESL5Fes8jAmBdOzaZkOqkXdYlf7kHdAI+fx00QzdEAm71d0dAM6VAdjD5lHvuZ5IqdOwiIjWYUPz5TEICKqncJTTaXRJkSz4UkbrpdwHFLXvTaKPN2zLP+j2M6eGgU9UGwEopkM0cIBhSwUfqirXO2X8VYZqggFqb1z7A8oqdAbchbiSk7nteYPS3/tBvVYwyZFfO2wLaQvRU6CypLEglprLA0hVOmXyrGFDz24pI1ZWIH7NnZ2e2O0B98UJxZA9ghbwBqeSv6CawoiJhWbIkRlkAVW0qkkDWRM+jhJjKAgudfr2fuBED6vpNzmdnNA2mEZrp9TiuGK0uc2KHmhPOPUhlRcXaPxxhU8pYD6OAqXrLIbAVQ3+ijUUVMwfmD7pqmaGmrFktwtRryELKU+m8sH+AJQzZ/gBGBDcsqlj7WzaaWgyj7C7FHKByZ4NU5g8M/boLf+fAQSllJwzaQz1Q7jjjTNkwMXF0m3iN+h8wJZoC9Kg1JK6glTDK+sazbBdIip+7UO4v97Lw1w2oTBDZQ3VOnyoG1PgZgeb22cKZZ/HZQKVfNL6ob5DWSwHT9ZfrZZidZxmM+ss9rG/AkAEepRYCKpMK3T3/lGmPpbw3L44w9Xocg0c40phIKtp68M3IFkyKog1JZrQW3JCyDEbLX/4/oNPg7jinqEucoU5forvkd46fIJ6dchzljcP0lFPQYcOV7RNPmCqjWjAptZAG9oXPW26Zbw2MMvLWFFXgZOOJJT+TYG29nJ26Nm0Xv1AaU5iKFR0od148TEyc/CeeMJ1MN/WTEX/jhKYqMba8BTDKgMvIS2Az1jP1tVEvk2AWUphRzzr54WjTxvXlDnEVRUA9yYzBZ/tsNrwC9Bxa0tTJqFIdIZlzfyXH3GkLYPT4km0AJYFupHZ/ubd0+hLtep9ZI6sopo8xm56WFTt/+Vt1Y4uej8FkVFZKKP32dnH+IHPMnTA7Rv3lHsKYSXzIep+9Ba0xrrffc/zut7GBKbtOgZNR8e2Qam2dTeW4t85sqgqjypsdoydW7SSMGeWNRurBEvYWdKenrudeiM2eFAP9BQMC7DjwaSwHekk1i6fdD0hJ819NjVGmgOYJolJfAlNMOvbG59Kt8sqeVFOPTL0ex7WTmD8o1Qrfz4zlQC+r5tSq4B35zswJU2PUu7HQhL4DplWbitg91drGkWmTYLq7yDl2XIBaToZY4gSw6m6afmFW+v3spqsxQIOpMepZtRtAGOCFSKvAKo5kWexrC4owjfogqn02J64BOuMx0MsVlK4QJ7vyrVkT5sUoq6VE7YmG01nA1F/u1YfptMeiWUKxor/rIXXVcRropWro/IJ/SkkzXzHTpOZVfVNkUssUZgWDKUsoxy03CRHtm7J1P268QrcgBrk4DfRSNaycvrfAysm8GDXtQC/1r3yVYMryTuZICdesuUK//uF+c9/rEUaOUG/d73k79it6yTj5yq4WU1751pQJk2KULjfzQK/qSmBa9vxKFZNb1/yPwj0s3V2UcuMkigRQ4SNxWdEr66D/j+jsUShFEp7GxoTboGOAb1+pDtesrNrKap4o7dyUXSTXZ+sFTxg/28RqaXzgMfr+TwWCXFObHEb5w8vDEEqkiEkxWvXNwUR6Jby6gSbkzE7PnNgn+7c/zbl7iLaceKa/uO4Ffm2ezNFdLe15Oe4DPQYwJS1bzaeZyaQY9ZccZ+FsTseBSwxLPaN11i3n5z47suUDw9z9O6d2aU3UhK8lR5++jbxvymrphpsCCjJHPPJh3Ad6qcoTOzz+KilpzqtJMVpTdMxs/gKakKtrrgjNJ6845RcXpPduHwyXKuOd4yeIu1G6y3yvhyzCbUARtoQM6xm/4D6+N6B2k90Y5onI2s0qJLIC8ZQGmtKATtTMnvwToBlFbexGCR266izzWS39+jdqhRymMwqruXG7LzP1b0WZEaP+cg+wiFuHRKAYMwicOfcPkQb0MKNmsApc732o/vl9gui149VbThyjc5geTEvM+UCg2hS/bxWsZRgYLKtZ80Fnev8OrR4fQeB0tc+JiS8cp5+unpgSRB94WK18xzSBw3Q1N573VUfjqb2pus2IUX+Ft6nNakJ5CZ0M65mjznKqfimkCWqlouLElPMnb923oLweB0G0T18pq/7KllNcz5bqqwn8qDLvj1ljqBkxilkJISU6mzish7A/5c+z60d83SC69Q6jgyi21lZxMS3ZGBW7BnSyl8TITuyMHzrFmgQB/dKIz4E+21KC8i8hQVRpgCnTzR2joFNaFbGXFPORPViPM+ILPzkn5aGpaoGEBFGMSG/NxbRkRow6s9IN8BfoZEeJ86EQq6KSUs8nX9XEwxjXB4vVy/l9iwTjZ6JS29JaSp/mvJoSo9nueB8yAVAOMNlR4nxIt2NA5/R/Vec9XfvvPXHZB1Jv2mPE5lEJmIlSL+1LDfjBaHhBKREZZsRoXP0AOhncWbZzgKlbUeVxn4TOR/9bI6Q5uuQ5dMVizGRP1Jg3SHTtzumqyzYJ06QYZQUTJwdxksng7lD9mtLJyl5cXp01wwc6O2Q5OqSJ3NxMQzD6zXWJCaI0kb3YLBujOCJCSu1xKgEvwkKhxNEG7ltNHxHsJJN5Z8cnPL9ZVQM0oXpdtYLLgDPJrx4XauorNPqDek+dbHSlEdZn0jia9mP9/5oowtY1iBM+Wbnrhs+dh/2XvuS9/D1xrG1AZ0PROKcqdgm7HjHoFSdtU/yCkB/w21JakYRzTIpRtoFS2mU13TuET2afIcInU8/uz3u/O1rbIcheQk5GnMf6jb9M2Chf519Ph8BvS9cxTXUxKUbxkXtwFxBGImqiOIv3YLNPBnfHIx5p6hl1FU0tyFKpdEVTlURdnoG+/WS3s27eHbUS/YKx5JoYo/07N3EHKuf+IbqLd1bu187xXv5WFSM7FNqdZcdrQwtEnSu+WbwlcUsl7Gag7/UgnyYn82IUx2WM6kksJBERUYTNecZ33feVCJ9ZT/nmfV/Lyj0itTEXdq+7JuY6I1BIEO1wt2DuFb3UHFNjlCgY6awUgKb1a8fmvO7ySAyf71Uz9Ww0fEre4eqjL/mIOXGqZNi3QXSNTxE8Zz+lm2M2pqkxirOyb/8psCMRDiHJBJT1u1Z4/S4/W0ti+AyyNtIWETlxWi+xlt+UoFMlsVWC+I3T/pvMPxOVjDU7Rlngc6QO+CRzQ1yRYYOJ0KuVYWd+wCzxndTww6espKQyDvNR1vJyBcYn2GQ7b6GQe47xNUdXo9kxSqs4Ugd8QJB0MCIXKOvuzzO+/2ZlTdSzzzJPrDHKjj1reQOOBnSdJQH0RyN1M41nhlOjBTBKMwAfi3QSYJGrimACUKCs4peUeno97Yl4fA/Usu9oTDG6/1Nxx57jx8BajLgDnWndhUt2CpYCKJ6xBkYxlEV67pNXuC/pCiK5lYlb4KsFKKdH5/xZ2FYpRDG+y8opWxhDjDIN3TgiATv2LPsAaLcZwvDtlljIy/6XEpbBqGRu5qizWj0+gpN3oCkRAAW+Uq58ZYXE6RG3gIxrU6j4RFNKN5QVd0NXdTP0zFOCJiZ0fswz2iucdT9JK5LFMIqLWUWxcs99diRLeIZ4LUDZAWWFFPUElCqUxDGp8pb0RwdXioAjFQm5C+cLOWPEEoQ0icAQJLJi9A9tkKQclZ0fEy7aJFxZK/SeapUlPFZryXoYldrA9idLeO0Qv+jLGvEAKStmm0aFFer56LIj61usGvz49le2le+UjAnr2ulaYeAHJOOOfAAAEABJREFUIEYMaUwKWVmf+bLwo7tF4DJNRIWELeUVwOmSUkZKUzzrYqHtZAGdF20Sq6iDpoUW77QgGFkVo7rtAaCj5lXFKoLWV5HqYGpbn677OCOri+BMf6To3V4bb+izfuKrBe/u9xyqywnrIoY0TndYuPS4Tej3BxG4TBOB1NhacUFz0SYx+J2/RID6vC1iDtgpCSb4JleSBO4UpPjg5cIFswV05p4jVhGWLdYQEjFqDUsbszIuAK2r9IdjdR8nL6e72wh+b1tnRltXqx985bd9/8qP1o+VwBpZZD2psOET7LJtCZ12qQAResGcimCCb3IRgyjSUD45U0mCURZJo2IeQaUedwg7DvqlpHTtkvEjKSFdlWAlsrZbc8VdXz/FnDWi4Cqpsq+6HkgGjDIWD3g91kO8wlu7iwOmpJ2zOigyG5ISWLl/oXjJyO+mE1wdq4ZM/OJeJgNrizfakMUz0VEyYHT03KoO6dE1v/FS7F6tKwyIo8z2ers7higpgrVuJkDi3fINTAYGbblDguyIDb9isTX3+/mgdlv5zij2B0LUizaeBDTzVEAhJK2VZXmM3j+/io36uDr9O802/rBT+h70Hw+nUmAqkqsVk1cSWzyFLLZuLngR1DIxaLFqMHMDgEu4ZYYgwZd5AjiDALGW4EPIAHSASBEKooEJcYs1l/IkoJmn4rY9LyAWjoXml7E2RpmGPrNB/JZcXB3N9tPhIwFb+X1O6RF1jSBVJAm1rlboAbiEW2YIEnyZJ4AzCBBrCT6EDEAHixShIBpYvTWorYvi47dORXkSUCQYNV9zJ/8zjtPQhuamOnaVBUwmumd1YmnfINDklAgvgCXTSQSL0Vc3LUvWJXTrP+grJdbqZlmLaWGMcp60rcIQbzuE/xawmd5Q13mtejfcmDUFvom1ZrUuArssjNE3PvcJMTtOCuUycdlUENmyKZQ6I/P83iSYlVoVo5XHffMKakGPMT0+b0cARql0fN7gMJdNCCeMnOnziz5NWO0xqtiqGF2zy5AQKns5VX0i2i+7p5xp2gTT3Hmla0xrXpiGWRWjOw77jRno6/3oENYFhtKzW/aM7bKpvqJYf7ByYtM01loN1RcPjBrRgH1HjRvoaQ+TisXfBiybTnO3Cb2TTymTUHlV4AsHJjErbDOsitFCzb562E2OUnBdUcCJKFqsMSUVhOLqMqy1LlkVo8Z7vNAr7GSCoah4aN4FlhjuFSZbMmlhjBZWGetxh7A48HfHLbFLaqyP4lKbVTF6xqlGW86UdOE2v7IT3M60CS0Hmn8HqnNmwMuEyiZYIm10T8fKKQb9BHiguUsP1bIvq+Td0O5K5a0Z0870vDTxrQAz2haeTYnEaHgW6ksN6O4U1GsYfcnYcj/bHrAva/4dqEszziTex9YJBmuzKka75Ts7BLzmYYTfqPGtjT5lTexAMdwrOaZKMw+56tShpjIpCmOsilGaOrGn0+hlkyBwAKsd7oEC9piR/N5RbYeY0bBIbLIwRsee7RKqEjDeq4b7YfkDTLsDdWlWXyJ9JHgwo6yFMdq/q7Nnq4DZoREOdgiq4Z7ZHsO9CUMpp6BTu9xqhE/iXIeFMYpn5vwsja11EoYRO1AM9yWldf+598la7+gw0YShlKPagXnnnrTRwp9WwGhw9xJKh7dJQChdtNWlNAooAAglJ+FpgujLPe5NuBkxMcDaGMUFL1+TWqj5uRv48SNC6Yy1Aat76rqr/XjzDPdYwvSDJwfDkoAsj9Fu+c5pA1wGL/C3ldau3xVw5nTt6aNMNdy/3vd/kwCdUhMsj1GaMX10as9MPo2jDlmOP62sVtbHyumx024kgCmZCUkzyi86Yzr2JKT2eFSaDBjFLysn1xq8eGLlpPpC880drk54KAWgPCpXWn9PlD6VKUkwmt+6xbqb0gydmDqEdzcHrJzYiZxy6ugEhlKqZho6tcdtcu8mRyJJMEpn9O/qXHy9cTBl5fSblTWqM6d7ut2cqFAKQDman3fOs7giySh5MErHXNY75Y1RBi7zHcJr6wMOugilDLXABWOMJGoEoEvOf9XISg2rK6kwitdu/Klr4USDoqkYSlepQylDbVtnBpYYRskNUNyYbBilSSPPTll3a7phc9NnlwWEUgyY3f0+1i4kDCAqmpI3IlkjqOTAJMQoDeP8acfd4qt78d43JZQ+us6nmpWyrDZm8QRAX+k8ZeZZD9LkJKbkxCgdxt7+1rtdEzs64ronxTPACUJmRsACn9rBTe+0tiTiRIzv0Jo+L/2q04Q4VWEetUmLUVwMdN6ZnL5wXKoKpmTFhADo8HwHJwi62haf80dgpJvVRCbhk/H9xKBPk+a0M7RDkhmjUsuZnhbfLQxo54jtDFUC6Kd3iDMKqSLVlTX+1nNmgycVvym3EugJnzPPejCZTpJC+yT5MUr7c1u5CagspM5oGZuhn8DMLCIEQKkU6pndbeu5b5KQsEUiakID9ErH24oGfdxMwqfsq2aBUam1LKRAFcdRTUQqAP3TkBRAL6kNfQWme376wYTs86MLqOBSKvhapztrB69sDrNPrT+bEUalxstIlUZ/AMeoLWWFviLGbAF877gz7c5hEfzPyQzKHP8wQJ/qygZwwC50ReQiI5KvFHBTkNg5qeM4+M2Tmh1GpW4GqQTC2hktFl+Tel9fZ2aqAP4kvIpYrBIarl4xCwHE2M8iErNjICmJ6MoAvaX/PADHcoeCIlh9pSIQ/cfrr9zWEbnILDpj+onBqwA3BeE0Z2qmGJW7nOPTp8elbb3ffegegWnAGyNcfxqcMu28FBA57bwU0mwLAE0EEIsOnXJdJAAcyx3i4r7+H4BXRnCmmBAJbpm8gktykWGTlQBMEZuaO0ZlBOS3bkFw5SiVcZztJBDJlTTbAk2HplyLnGDVD14ZwZliQiS4ZfJq41J2kZywMSq7wk6Y1AM2Rk3aMbZZsgdsjMqusBMm9YCNUZN2jG2W7AEbo7Irok4kbcFZb2y56Y6ld/9+9ZLlexLYyDhidHfB0S+/Oqx6by2BTbVi1YePnMCHeNJg4+m1KyYu+utbO3YWVHz+ZfFdj/73L3M3G2yDXF1cMLq74CgtHHPT0klTVp9/2ftPzfyPYP9F6IHaqhoC2JCrF02asnrkjUsnTF6s+gEfIZ5/f3/3mx9KvNlZrvQ0J9Suddof526nW+NZZ1Ddsccorpzwy+XHPb783LTcnFSa996ivTZMg/ZAkIxJd69Yt/EI3pN8uP+Q5+e3LQsiG3v2irUHMjNSlHoz3U4iupJjWDr2GP3L65tTUhwpzoafYcLLb39YCHYNa5XVKwING78+mtmiASUEs6IfPAmcF9KnifJq7DG698BxV0oDQKWGwSncVy6l7WujHmBUVQJUkgemBYUG+fC0dplSpfK1pqY2MyOCN2nkgk1PxB6jea10Xvv1Vtdmn5LWdHMtrSF840GDtyrg96SksllZBqHk1Lx0ny/gu4S+mto2+WrgSlbF+xp7jI4b1a2kPOBn5XB37+5ZXTq1jHdjkkb/wP6nE0dr/A0oIV1eWTN8aGdj2pjb0g0oVXW53eqvbakE4nQbe4ye3Tv/4Tt/XHSkqvJEDegsKatmkHrlOcv/zwFx6gBdtZkZrtkzB5cd85VX+PAhnjxcUj1z2nn5rVvoysec6VQsJ2KuPFKFsccoFlw/vtfKBSMnT+x25bD2Mx46d/mCMbmt3PBtCt8DZ3bP3bT4qgfv7I0P8ST+HDHMoCAavpHGSMYFo5jOE3/rL/o8eNeFzdazOKGJ5EhLuXpUD3yIJ/FnE7VZt3i8MGpdj9iWm80DNkbN1iOCYFsU6AEbo4H+sO/M5wFTY5TjlllvbOHY+qY7lt5+72ccqHLQUnk8YGNL6VKOshCY+uQ65CESFEeJUibq9Lc7St76x9b7pq1BMyQZQ43BFGInxiCGMETBv8zdHCtjglUq86XaqVHyHgbgQG4xiSxZLOoEDUGbpBzNNHPBwu2Hj5yIWmGIgvHCKBZPmLx44Mj3aQCnJsEsIIt2InbFxEUUkcVwAcVvuHPVnHk7N31dUrCvcsu2ox8tP/D7pzcNHPUBWJElpURtVQ1uGjhmIQKfrTuEPESC4pOmrEY5fSM09kfnAeshYz9Ang6QxTGSVlw9efmLr33LGTqadxZU1BszZiH1ypJyAguHjP0QYxBDmCIUnPverklTVtNYcoUw/nAC2EJ+wuTF4dgvqdxdcJRW/OSK96n9zfm7Je9hAA7kFub5l73PA4NyST7SK92ESZOmrKY5n39ZLGmmmU+9+NWQqxfRm4djjdS4YJRum/aHzYeKvS6XA9eMvHEpjhM0fzRmzE1LaSdixz2+3z+7mfYjRRde9+tVFM/PTWMrm6N/iE1WKDvLlXOK64VZ2+g8cIkwhJ6h1yz88NP97VqnIYAY8hAJiufmpKL8gSc34j6EgxHaRv/8o6VrDlIQ+Vf/voNWIExfYiStQDna0IkAV4i6YFIvmJYDKnqAFBZmZqQggBgkFaE4xtBYcpHhkUB/MKJenLCzoAJ5XHHXo//FLcGEZT42Yy0PJ66TaqdqiTADgonNPDA8/1OfXBfaBlktCU6zPR4fz+rjL2zBJBpCc1CIcq6QpJneHPazReE/UWhulGKPURDz5vuF+AjrIazPzXa9NHuL1pQ5b26R24lkfm7q7Le2A9MZf/4GP8LRFoEDH3d8u+vYpLtXcAs4Rt+wmASquOoSRfApHYOLdQVgvr9kFxvmkhJJfsHiffiavsxrmUorkNElioDp8ZOXSLkTb/t0/yEPFqJE4qiu8MlFZvzNn4SAyEP/+zkOoV7kIdIgO4Q8WeCeBwbPU0pVqeoWAcSA8pXXLcKBqlzdWx65KVPXbd1RhiexR1cGJppxF08UruM2JhR7jH6x+WCmO0Atj923O3Vehvjy6xJ3eoMkLaezn3n5a9zXaNtAxjfbywktv39yPY84ZcMpsmFzCZFGV/K7naX4V5kFkqY99wXGNKocAY6C0Ax9f+CESo9Sp5xGpryi+t5pa2SOMgHgin7woFZmkvZU+ffuV7pRzhSQB/HgHrc0cBtLYQOH8ldPCvWoyDowgLR0JRGCkCHEANPdBUdDiIWf1QCR8MuElgz/zYO8XDc+UmqjeZKXOZ6m1w+XVHGmCnGgypGgUpI0GGKCyCiMr7mlCIFQKsKVNBz4SqIIMZ5Ir2RKad0T6vCNQZI5GUQChVSNAZiB8ZCu/Zi9ZsMRxnTktcSDp2LCSUvV7y+wDuJRqCwi24AZGIAZmARTKUMRj9c/44XPlcxgaXqHLDSgB50ohNBMT8FXEYPnY89tUDGju9Vvc3S6pFJut0v7OkJ+a52Xofr2ytVKogQ44o77bj9r1fujtq4eD73z6sV9erbU+gJA4GWKkNUmL33WHwb9++OrkOdKGg58cpWE75hjKDlSulOH7Jqahnc4JCZXuoQH6c6bz1z+z5FohubPuWTogDb0DblKwhIIDo4AHekAAArRSURBVPZnuF1P3N9Psv+bZVdj/4BzW9O15CopJ8v11799o+RI6QyXg7GVqqVb+domP0tOywlG1fWbiqWqZaZsA674auX4L5b/bMMnV2ESjlWpxYfzP9mv+9zK2uQETcCr6JGaJnlj0jVd8YZKLfZs/PoomyFy2agTsceo7rOe21IHo7qwwLndOmX96+9Xcgwon/JzeP3ys0PHXHqaFnO0HMeR9e6cy8/unZ+ZIb6bw5U0nH5ntUIhMjLhuyWriuRbOdGxQ472gcHvoG3B65ddP76XfBrZpVPLxx8acM+velGvXFxOUB2P08fzRnIILNnPkSb2P/PooFuu7aayH2MIpdoZIUWoV9ZJAksAEwktPfXiZtaRSj61XHB2nmQDrpCySGASjkUz2iSmdM10O5mhSekQV4BIE/AqeqSmIYw3/mdS37kvXFR2TL0niMGr1u5FpokUe4y2zHGrOps4hIO0hjIrUEniu+ys1NdfGq4rz8k181dklKq4HXTBqWQpmXL62UcHUQUyModE8dFq7VQpv3UGkuTKRCks//srl8jolLNIgNof98hGhrRM3J7Wxs3jJHOUCfoyNycNGSXTnebcsEnnmTkls+ElfEkeQGvdQhCtPF5DdJRkuKK/Y/sWzz9xEWktoeHJhy/AA8qsSo+fR1TJ0abB/a9+3p0maLPgEBF4aJEhLROdtWLtAfk26kTsMRq1KRRkbnT9uC4kgtH1V3VBRplLD40YerqSo0zTJYRYoKZkAovyY1VKjm6aUozpcsDQylx7VTdqV/Kx7ZKLTlNyVOlbru+BjJKZkuI4UhL91vc77+9kVqBUCP6emtpfyVGlwdPwgeJcBTRDRMeRQ9sS6VViqlvGh+FDO6qYytuxV/ZARsnhydleUKnkRJc2F0YbbcP5/dqqZo30ceXxgP9eVqWkX598te9SHNo4qioVzu05fduqQi/LmtCA63Vma5UxFCncdyyc6rQyTBI2bysDCnIWyged35rxV+YIgqBNE2Vvv7EHgz6TS+LfM48O0spoOVXVOl8NkMUIBz06ZQJ6mUPCW11bGfxcEIFwyGIYzT4lTQULGnnCo54JwZRJO6MgK3QRBMKhzAydb24cP1ETomxuqxZa+0MXCaGtUPMVMTA65rJOIYrIWbf+og8TViaXTFpkZhMTPbrmMPgolaQ42RcLFUGUwsHSFsNosGaE4Lvd4ipKJXC8yQ+3pJAoKCXCvOrCOsyyWjFGAyapSj4PANFdyTEyndFCPYeOSe3Jj9GYuMmcSn44ckL1kHAb28fADA23MWqGXojShpKjHm3JzLrdNy3fuhwbo9btu+ZiuY1RC/c057da66NfR2t1mYNjY9Qc/RCVFae2Vu8SsGY6dLgiKmXmLWRj1Lx906hlmRmpqt1i1kw7dpU2WtBaAjZGrdVfAdayzUTgVLLYilryWVhH5EwJZtV9D+cvczeH+UKJsiIj0zZGjfR2jOvKb92i3alu5dEOGF269hD7pqFr4oDqyuvEn8D9/Mviue/tGnL1okaLhFYY19xmitGMZNmgueryDqoXAHKyXI2+uDnzlU2Uys4SfwI3s0VKbrZr7ttb44qzpii3GEZDHxnrOsKjd1KqPWdSDZq6qrTMSEt5vTrHtl5vqONTbaVKzrjR6jc5CKXf7jo29cl1SjFl+suvDi9afgBoykyXy7F9V5l8S8Kv+Dk0bgPJ6LvYY/RomYeZu6odxaVeFYfbQ4crVZLcVlSEOt4FcMhQViZuCxt7JwMZWZ4Et9o+qKjwwidXSbpmywKVeu+yhC6i65wKvYPZY5Vq4FaeqGESKdcuJXJbua8ZeTpZ0q10BX9L1xy86Y6lwFHiSNfaqpoFC7ff+rs1OacEnA9zyH5au4DfbeR0wBX4I7Lc4nxJT7DrD8XqXqYUjg0mHyY/9hjVvvbGY1pconMiQh+nBDoCo/cVhXqbC1gjo6LSo6FetGOmFU4tumYX7A1lTEmp+p26YC2VDdatRescsFge+KymOB0A0asXhh+860J3ulM5K6U6YFqwr3LSlNU/uXzBhMmLb7/3M64/vmTBMy9/nZmRgjZB8VdW4btxwpkKhrD3wHHlrZTWdb6UJV33F1XiASktXcGotslSVvjX2GOUlmCZyoIjpTow0r58RAv3HggFiyMlJ7SA041DsgFaBJBVrBfXtWZ7q9TBjLIyEVe0RfYf0nka5SK6zjmkCT/Ig0gVkqiLMEyWll57YUjx0WoVTCmem5MKfNG/ZdtRru1a138XXKmBii4f3Pbs3vlKJk6jL5Qc3E5MUXK0aaqgUhWfJqs4kd7GHqO678Klp+m8EdPC7VJt7zHo6H6rRG5V69wWqiJkudN1lMOXSHd5pPtj09rJpa7Zklrpqi2SHfKnlnWdk6H3ZlZ6mjo0UldWls5XbrCkS6eWb744+HCJGqZkARoIbVy5VVF5ha/fWa2074+2aOGiL5TCuJ3tWCVHm26Tl656TrCZJmslI+LEHqM8kQw0Slsrj9ew/NSaNbD/6ZUev1KypNwX4qV6NJzfr52qCONU6CLDh3Yur6xR1TLwwnZoU1L4ZsuldIuMGRH0SwEU7HtGHnBRGlN2zKf96kFmhmv4oLYeb8M7xd4qf6+uWWw2oUSXMGbR34YDd2CnK6BiovBwSdXVl/9I95sto0d0xLFyEQzG7fSXzNFNjL6sI82RsyhF7O/eNVfmRJeIPUaxQ/4NYsYRHHF+39xbf9EHvorw+Mxp5x0uqUYMKjpSdcNVHUaE/CVYlgiqIteNaaRI+LWEabayFRThCQQW2H+4pIqWBvvGj1TKkZby6jMD6Ui5SP9+ebpvGT8w5YKO7VuUlInO4crI++LTQyQlwa5E04/njXzwzt7eKj9FuIISiSgiJWBiKq7u1inrH7OGMZclS0tXj+ox9tLTEEMYUw+XVL/958E8OVpJJYeGDO2fL5eimbP+MKjRUkoNuum4YPTM7rlrF47FWZMndmMM0n1SJWtA5NoPR913+1l33nwmYSCYyyRh6SoVQR4Kv8jKBSORhxbMCdoxktlP3N+vUbMlS7hSZOUHY8JpKcISEfDCcQ5d++6cy2c8dC7GcF35wVgeNklD6CvwWrvoqrkvXHTDuC4MvgzZxGNwxpXhvk/PljgBv73+0nCMD6Hq8YcG4Ctqp3X0EWaHEJaznn/iItBcX2rh2DBLycV1E3HBKDXhYpxF+GzUSkIjkjyChAEKhkMUQR4KvwgdjDwUumMwm2cgHLNlOymC/XEqIhnDVa4uzARuJ6KDcvC6fP5oHiSuyxeMIV7ghDD9hq9oF63D4WHWixhVS6XwDLdNp3hhtOmW2Rpi5QGwIlGsFBqsx8aowQ63q4vYAzZGI3aZXcBgD9gYNdjhdnUaDzTGsDHamIfs/ER7wMZoonvArr8xD9gYbcxDdn6iPWBjNNE9YNffmAdsjDbmITs/0R6wMZroHrDrb8wDJzHamJydb3sgUR6wMZooz9v1husBG6PhesqWS5QHbIwmyvN2veF6wMZouJ6y5RLlARujifK8XW+4HogUo+HqteVsD8TKAzZGY+VJW0+8PGBjNF6etfXGygM2RmPlSVtPvDxgYzRenrX1xsoDNkZj5UlbT7w8EC+MxsteW2/z84CN0ebX51ZrsY1Rq/VY87PXxmjz63OrtdjGqNV6rPnZa2O0+fW51VqcaIxazV+2vcZ74P8BAAD//4TRRaMAAAAGSURBVAMARfuSTJ8kunMAAAAASUVORK5CYII=;" vertex="1" parent="1">
          <mxGeometry x="120" y="240" width="80" height="80" as="geometry" />
        </mxCell>
      </root>
    </mxGraphModel>
  </diagram>
</mxfile>
